# xmcd CD database file
#
# Track frame offsets:
#	150
#	10350
#	22926
#	39844
#	55176
#	72650
#	87343
#	101794
#	117426
#	135564
#	155197
#	168315
#	183803
#	197283
#	216359
#	232276
#	248873
#	263919
#
# Disc length: 3738 seconds
#
# Revision: 1
# Processed by: cddbd v1.5.2PL0 Copyright (c) Steve Scherf et al.
# Submitted via: CDex 1.51
#
DISCID=fe0e9812
DTITLE=Blues Brothers - XTA-6
DYEAR=1900
DGENRE=Blues
TTITLE0=Blues Bros/Hey Bartender
TTITLE1=Blues Bros/Soul Man
TTITLE2=Blues Bros/Flip Flop and Fly
TTITLE3=Blues Bros/Expressway To Your Heart
TTITLE4=Blues Bros/Funky Nassau
TTITLE5=Blues Bros/Ghost Rider In The Sky
TTITLE6=Blues Bros/Gimme Some Lovin'
TTITLE7=Blues Bros/Going Back To Miami
TTITLE8=Blues Bros/Jailhouse Rock
TTITLE9=Blues Bros/New Orleans
TTITLE10=Blues Bros/Rawhide Theme
TTITLE11=Blues Bros/Riot In Cellblock 9
TTITLE12=Blues Bros/Rubber Bisquit
TTITLE13=Blues Bros/She Caught The Katy
TTITLE14=Blues Bros/Sweet Home Chicago
TTITLE15=Blues Bros/Who's Making Love
TTITLE16=Blues Bros/Minnie The Moocher
TTITLE17=Blues Bros/Everybody Needs Somebody
EXTD=
EXTT0=
EXTT1=
EXTT2=
EXTT3=
EXTT4=
EXTT5=
EXTT6=
EXTT7=
EXTT8=
EXTT9=
EXTT10=
EXTT11=
EXTT12=
EXTT13=
EXTT14=
EXTT15=
EXTT16=
EXTT17=
PLAYORDER=
